<svg fill="none" height="1920" viewBox="0 0 1920 1920" width="1920" xmlns="http://www.w3.org/2000/svg" xmlns:xlink="http://www.w3.org/1999/xlink"><linearGradient id="a" gradientUnits="userSpaceOnUse" x1="153.256" x2="454.056" y1="267.473" y2="267.473"><stop offset=".4062" stop-color="#ffd100"/><stop offset="1" stop-color="#ffd100" stop-opacity="0"/></linearGradient><path d="m7.49263 7.49263h1905.01v1905.01h-1905.01z" fill="#292f36" stroke="#292f36" stroke-width="14.9853"/><path d="m142.269 1230h114.126v-30.61h-78.536v-38.43h61.69v-29.19h-61.69v-37.25h75.926v-30.6h-111.516zm120.6 0h35.828l27.76-38.2 27.997 38.2h38.2l-45.318-62.16 42.946-59.79h-36.065l-25.862 36.06-25.15-36.06h-38.2l43.182 59.79zm191.634 1.43c33.217 0 55.283-18.27 60.028-47.46h-35.115c-2.373 12.34-11.152 20.17-24.201 20.17-17.558 0-28.71-14.24-28.71-35.12 0-20.64 11.152-35.11 28.71-35.11 13.049 0 21.354 7.59 24.201 19.69h34.878c-4.745-28.94-25.387-46.98-58.605-46.98-38.674 0-63.35 24.68-63.35 62.4 0 38.44 23.489 62.41 62.164 62.41zm137.932 0c32.505 0 53.622-18.99 57.418-42.71h-32.98c-2.847 11.39-12.338 17.32-25.862 17.32-16.846 0-27.997-10.44-28.709-27.76v-1.66h88.5c.712-3.8.949-7.83.949-11.39-.474-35.83-25.15-58.61-61.689-58.61-37.725 0-62.638 24.68-62.638 62.64 0 37.73 24.438 62.17 65.011 62.17zm-29.421-76.64c1.898-14.47 12.812-23.25 27.285-23.25 15.185 0 25.388 8.3 27.76 23.25zm177.013-48.17c-17.32 0-29.658 7.83-37.488 18.27l-3.321-16.84h-29.184v169.41h33.454v-62.88c7.83 9.97 19.931 16.85 36.777 16.85 32.743 0 56.469-24.21 56.469-62.17 0-38.44-23.726-62.87-56.707-62.64zm-7.355 97.52c-18.269 0-29.658-14.47-29.658-35.35 0-20.64 11.389-34.88 29.658-34.88 18.27 0 30.133 14.24 30.133 34.88 0 20.88-11.863 35.35-30.133 35.35zm90.957-9.02c0 23.26 11.626 34.88 34.878 34.88h27.286v-28.23h-16.609c-8.779 0-12.101-3.56-12.101-12.1v-53.39h27.998v-28.23h-27.998v-34.17h-33.454v34.17h-20.168v28.23h20.168zm94.493-100.12c10.914 0 19.456-8.07 19.456-18.75 0-10.91-8.542-18.98-19.456-18.98s-19.456 8.07-19.456 18.98c0 10.68 8.542 18.75 19.456 18.75zm-16.846 135h33.692v-121.95h-33.692zm116.324 1.43c38.91 0 64.3-24.68 64.3-62.41 0-37.48-25.39-62.4-64.3-62.4-38.914 0-64.301 24.92-64.301 62.4 0 37.49 25.387 62.41 64.301 62.41zm0-27.29c-18.746 0-30.135-14.47-30.135-35.12 0-20.64 11.389-35.11 30.135-35.11 18.74 0 30.37 14.47 30.37 35.11 0 20.65-11.63 35.12-30.37 35.12zm152.71-97.52c-18.75 0-29.9 7.12-37.73 16.61l-3.08-15.18h-29.19v121.95h33.46v-62.4c0-21.12 9.96-33.45 27.28-33.45 16.85 0 24.68 10.91 24.68 31.55v64.3h33.45v-67.62c0-41.76-22.54-55.76-48.87-55.76zm186.21 95.15c-5.22 0-7.83-1.19-7.83-7.6v-43.18c0-29.18-19.69-44.37-53.86-44.37-32.27 0-54.09 15.66-56.47 39.39h32.27c1.43-9.02 10.2-14.95 23.25-14.95 14 0 21.83 7.12 21.83 18.03v5.94h-24.2c-36.54 0-55.99 14.71-55.99 40.57 0 23.25 18.98 35.83 45.31 35.83 18.99 0 31.32-7.83 39.87-21.36-.24 11.63 5.21 19.93 22.54 19.93h17.08v-28.23zm-40.81-22.07c-.23 16.61-10.91 27.52-28.47 27.52-11.15 0-18.03-5.45-18.03-13.99 0-10.21 8.07-15.9 22.06-15.9h24.44zm57.55 50.3h33.46v-166.08h-33.46zm-1237.634 186.43c.237 33.69 26.574 56 68.807 56 38.912 0 64.537-21.36 64.774-52.44.237-33.45-24.913-42-53.385-47.22-27.523-5.22-40.573-8.06-40.573-21.59 0-12.81 10.915-19.22 26.1-19.22 17.32 0 27.997 9.73 29.658 23.73h34.878c-.474-31.79-25.387-52.2-64.536-52.2-37.489 0-61.927 20.88-61.927 50.3 0 33.69 24.676 42.71 52.673 47.93 27.76 5.46 41.285 8.3 41.285 22.3 0 13.05-12.101 20.17-28.472 20.17-20.405 0-33.218-11.15-34.404-27.28zm212.591 56c32.505 0 53.622-18.99 57.418-42.71h-32.98c-2.847 11.39-12.338 17.32-25.862 17.32-16.846 0-27.997-10.44-28.709-27.76v-1.66h88.5c.712-3.8.949-7.83.949-11.39-.474-35.83-25.15-58.61-61.689-58.61-37.725 0-62.638 24.68-62.638 62.64 0 37.73 24.438 62.17 65.011 62.17zm-29.421-76.64c1.898-14.47 12.812-23.25 27.285-23.25 15.185 0 25.388 8.3 27.761 23.25zm175.59-46.74c-18.981 0-28.472 7.35-35.115 18.27l-3.085-18.27h-30.37v121.95h33.455v-59.79c0-18.51 7.592-31.79 27.522-31.79h13.287v-30.37zm54.985 121.95h41.521l43.895-121.95h-35.116l-28.946 87.79-29.421-87.79h-35.828zm113.411-135c10.915 0 19.456-8.07 19.456-18.75 0-10.91-8.541-18.98-19.456-18.98-10.914 0-19.456 8.07-19.456 18.98 0 10.68 8.542 18.75 19.456 18.75zm-16.846 135h33.692v-121.95h-33.692zm114.187 1.43c33.217 0 55.283-18.27 60.028-47.46h-35.115c-2.373 12.34-11.152 20.17-24.201 20.17-17.558 0-28.71-14.24-28.71-35.12 0-20.64 11.152-35.11 28.71-35.11 13.049 0 21.354 7.59 24.201 19.69h34.878c-4.745-28.94-25.387-46.98-58.605-46.98-38.674 0-63.35 24.68-63.35 62.4 0 38.44 23.489 62.41 62.164 62.41zm137.932 0c32.505 0 53.622-18.99 57.418-42.71h-32.98c-2.847 11.39-12.338 17.32-25.862 17.32-16.846 0-27.998-10.44-28.709-27.76v-1.66h88.5c.712-3.8.949-7.83.949-11.39-.474-35.83-25.15-58.61-61.689-58.61-37.726 0-62.639 24.68-62.639 62.64 0 37.73 24.439 62.17 65.012 62.17zm-29.422-76.64c1.899-14.47 12.813-23.25 27.286-23.25 15.185 0 25.388 8.3 27.76 23.25z" fill="#fff"/><path d="m131.581 1774.8v-18.75l44.94-37.17c10.306-8.45 16.725-15.54 16.725-25.17 0-11.66-7.602-17.74-18.415-17.74-11.319 0-19.091 7.77-19.091 20.61v1.86h-24.497v-3.38c0-22.3 16.726-39.53 43.757-39.53 27.707 0 42.744 15.03 42.744 37.16 0 17.4-9.461 28.05-24.329 40.04l-26.524 21.63h51.528v20.44zm97.233-56.43v-5.4c0-35.31 20.104-57.44 48.656-57.44 28.721 0 48.826 22.13 48.826 57.44v5.4c0 35.99-20.105 57.44-48.826 57.44-28.552 0-48.656-21.45-48.656-57.44zm73.153-.84v-3.72c0-24.33-9.967-37.67-24.497-37.67-14.36 0-24.328 13.34-24.328 37.67v3.72c0 24.5 9.968 37.67 24.328 37.67 14.53 0 24.497-13.17 24.497-37.67zm33.702 57.27v-18.75l44.94-37.17c10.306-8.45 16.726-15.54 16.726-25.17 0-11.66-7.603-17.74-18.415-17.74-11.32 0-19.091 7.77-19.091 20.61v1.86h-24.497v-3.38c0-22.3 16.725-39.53 43.757-39.53 27.707 0 42.743 15.03 42.743 37.16 0 17.4-9.461 28.05-24.328 40.04l-26.525 21.63h51.529v20.44zm147.072-80.59c23.822 0 39.871 16.39 39.871 40.55 0 27.2-20.273 41.05-44.77 41.05-27.37 0-44.264-17.4-45.278-39.02h24.159c1.183 10.64 8.617 19.09 21.288 19.09 10.305 0 20.104-7.1 20.104-21.12 0-12.5-7.94-21.29-20.273-21.29-6.589 0-15.712 2.54-19.936 12.34h-23.483l3.378-69.27h77.716v20.44h-55.584l-1.351 25.85c5.913-5.41 13.684-8.62 24.159-8.62z" fill="#9a9faa"/><g fill="#fff"><path d="m1229.59 1704.52h-56.11c2.47-11.4 12.96-18.99 27.71-18.99 14.74 0 24.15 6.72 28.4 18.99m35.55 25.03v-3.81c0-44.71-26.15-72.2-64.36-72.2-16.3 0-32.18 6.72-44.27 18.78-11.84 11.84-18.3 27.27-18.3 44.01 0 16.75 6.03 32.18 17.65 44.49 12.31 12.97 27.05 19.21 45.36 19.21 26.84 0 46.71-12.74 58.33-37.77h-38.9c-5.37 4.69-11.18 6.72-18.34 6.72-15.43 0-24.58-6.72-27.71-19.43h90.51z"/><path d="m1363.21 1704.52h-56.11c2.47-11.4 12.96-18.99 27.71-18.99s24.12 6.72 28.4 18.99m35.55 25.03v-3.81c0-44.71-26.15-72.2-64.36-72.2-16.3 0-32.17 6.72-44.26 18.78-11.84 11.84-18.31 27.27-18.31 44.01 0 16.75 6.03 32.18 17.65 44.49 12.31 12.97 27.05 19.21 45.36 19.21 26.84 0 46.71-12.74 58.33-37.77h-38.9c-5.37 4.69-11.18 6.72-18.3 6.72-15.44 0-24.59-6.72-27.71-19.43z"/><path d="m1088.17 1683.96v93.19h34.64v-93.19h14.09v-26.8h-14.09v-2.91c0-10.97 2.47-14.53 13.19-14.53h.9v-24.15c-2 0-3.81-.22-5.59-.22-29.52 0-43.36 11.63-43.36 37.34 0 1.34.22 2.9.22 4.47h-12.97v26.83h12.97z"/><path d="m1412.23 1683.96v93.19h34.65v-93.19h14.08v-26.8h-14.08v-2.91c0-10.97 2.46-14.53 13.18-14.53h.87v-24.15c-2 0-3.81-.22-5.59-.22-29.49 0-43.36 11.63-43.36 37.34 0 1.34.22 2.9.22 4.47h-12.97v26.83h12.97z"/><path d="m1552.54 1717.27c0 16.31-12.74 29.49-28.36 29.49-15.63 0-28.4-13.18-28.4-29.49s12.74-29.71 28.4-29.71c15.65 0 28.36 13.18 28.36 29.71zm35.09-.87c0-16.31-6.94-32.87-19.65-44.93-12.06-11.4-27.03-17.43-44.49-17.43-16.31 0-32.18 6.72-44.27 18.77-11.84 11.85-18.31 27.28-18.31 44.02 0 16.75 6.03 32.18 17.65 44.27 12.31 12.97 27.06 19.22 45.37 19.22 18.3 0 33.3-6.47 45.61-18.78 12.06-12.06 18.09-27.06 18.09-45.14"/></g><path d="m1641.78 1696.91c-16.99-1.03-30.68-14.68-31.61-31.71h74.35v-.81c0-29.21-18.65-48.67-44.45-48.67-27.25 0-45.74 19.96-45.74 45.89 0 24.49 19.15 46.08 45.27 46.08 18.99 0 34.08-10.53 42.17-30.02h-7.5c-5.4 11.4-16.99 19.27-30.46 19.27-.68 0-1.31 0-2-.06" fill="#ffd100"/><path d="m1736.2 1696.91c16.99-1.03 30.68-14.68 31.61-31.71h-74.35v-.81c0-29.21 18.65-48.67 44.46-48.67 27.24 0 45.73 19.96 45.73 45.89 0 24.49-19.15 46.08-45.26 46.08-18.97 0-34.06-10.53-42.18-30.02h7.53c5.4 11.4 16.99 19.27 30.46 19.27.69 0 1.31 0 2-.06" fill="#ffd100"/><path d="m153.256 417.872 300.8 300.8 300.8-300.8z" fill="#ffdf4c"/><path d="m153.256 417.873h300.8v-300.8z" fill="url(#a)"/><path d="m754.845 417.872h-300.8v300.8z" fill="#f4ca08"/><path d="m668 932.582-213.902-213.903-213.903 213.903z" fill="#ffd100"/></svg>