<?xml version="1.0" encoding="UTF-8"?>
<svg id="Layer_1" xmlns="http://www.w3.org/2000/svg" version="1.1" viewBox="0 0 898.9 212.4">
  <!-- Generator: Adobe Illustrator 30.5.1, SVG Export Plug-In . SVG Version: 2.1.4 Build 3)  -->
  <defs>
    <style>
      .st0 {
        fill: #1a3a67;
      }

      .st1 {
        fill: #fcb034;
      }

      .st2 {
        fill: #2e99d5;
      }
    </style>
  </defs>
  <g>
    <path class="st0" d="M234,49.9v14.9h24.5v11.9h-24.5v24.3h-12.4v-63h37.6v11.9h-25.2Z"/>
    <path class="st0" d="M264.4,43.6c0-3.9,3.2-7.2,7.1-7.2s7.2,3.3,7.2,7.2-3.2,7.1-7.2,7.1-7.1-3.2-7.1-7.1ZM265.8,56.1h11.6v45h-11.6v-45Z"/>
    <path class="st0" d="M328,73.4v27.6h-11.6v-26.2c0-6.1-3.7-9.3-8.9-9.3s-9.9,3.3-9.9,11.2v24.3h-11.6v-45h11.6v5c2.7-4,7.4-6.3,13.4-6.3,9.5,0,17,6.7,17,18.6Z"/>
    <path class="st0" d="M381.8,56.1v45h-11.6v-5.3c-3.2,4-8.1,6.6-14.7,6.6-12,0-21.9-10.3-21.9-23.8s9.9-23.8,21.9-23.8,11.4,2.5,14.7,6.6v-5.3h11.6ZM370.2,78.6c0-7.6-5.3-12.7-12.5-12.7s-12.4,5.1-12.4,12.7,5.3,12.7,12.4,12.7,12.5-5.1,12.5-12.7Z"/>
    <path class="st0" d="M432.3,73.4v27.6h-11.6v-26.2c0-6.1-3.7-9.3-8.9-9.3s-9.9,3.3-9.9,11.2v24.3h-11.6v-45h11.6v5c2.7-4,7.4-6.3,13.4-6.3,9.5,0,17,6.7,17,18.6Z"/>
    <path class="st0" d="M437.9,78.6c0-13.4,10.1-23.8,23.8-23.8s16.5,4.7,20.2,11.6l-10,5.8c-1.8-3.7-5.7-6-10.3-6-6.9,0-12.1,5.1-12.1,12.3s5.1,12.2,12.1,12.2,8.5-2.2,10.3-5.9l10.1,5.8c-3.9,7-11.5,11.7-20.3,11.7-13.7,0-23.8-10.3-23.8-23.8Z"/>
    <path class="st0" d="M508,91.8c4.5,0,8.1-1.9,10.1-4.5l9.4,5.4c-4.2,6.1-11,9.6-19.6,9.6-15.1,0-24.7-10.3-24.7-23.8s9.6-23.8,23.8-23.8,22.8,10.5,22.8,23.8-.2,3.2-.5,4.8h-33.9c1.6,5.9,6.6,8.5,12.7,8.5ZM518,74.3c-1.4-6.5-6.3-9.1-11.2-9.1s-10.4,3.3-11.8,9.1h22.9Z"/>
    <path class="st0" d="M601.8,59.2c0,11.8-9.4,21.1-21.5,21.1h-11.1v20.7h-12.4v-63h23.5c12.1,0,21.5,9.4,21.5,21.1ZM589.5,59.2c0-5.5-3.9-9.5-9.2-9.5h-11.1v19.1h11.1c5.3,0,9.2-4.1,9.2-9.5Z"/>
    <path class="st0" d="M607.4,35.4h11.6v65.7h-11.6V35.4Z"/>
    <path class="st0" d="M673.5,56.1v45h-11.6v-5.3c-3.2,4-8.1,6.6-14.7,6.6-12,0-21.9-10.3-21.9-23.8s9.9-23.8,21.9-23.8,11.4,2.5,14.7,6.6v-5.3h11.6ZM661.8,78.6c0-7.6-5.3-12.7-12.5-12.7s-12.4,5.1-12.4,12.7,5.3,12.7,12.4,12.7,12.5-5.1,12.5-12.7Z"/>
    <path class="st0" d="M724,73.4v27.6h-11.6v-26.2c0-6.1-3.7-9.3-8.9-9.3s-9.9,3.3-9.9,11.2v24.3h-11.6v-45h11.6v5c2.7-4,7.4-6.3,13.4-6.3,9.5,0,17,6.7,17,18.6Z"/>
    <path class="st0" d="M774,73.4v27.6h-11.6v-26.2c0-6.1-3.7-9.3-8.9-9.3s-9.9,3.3-9.9,11.2v24.3h-11.6v-45h11.6v5c2.7-4,7.4-6.3,13.4-6.3,9.5,0,17,6.7,17,18.6Z"/>
    <path class="st0" d="M780.6,43.6c0-3.9,3.2-7.2,7.1-7.2s7.2,3.3,7.2,7.2-3.2,7.1-7.2,7.1-7.1-3.2-7.1-7.1ZM781.9,56.1h11.6v45h-11.6v-45Z"/>
    <path class="st0" d="M844.2,73.4v27.6h-11.6v-26.2c0-6.1-3.7-9.3-8.9-9.3s-9.9,3.3-9.9,11.2v24.3h-11.6v-45h11.6v5c2.7-4,7.4-6.3,13.4-6.3,9.5,0,17,6.7,17,18.6Z"/>
    <path class="st0" d="M897.9,56.1v42.8c0,14.8-11.6,21.4-23.5,21.4s-17.4-3.7-21.3-11l9.9-5.7c1.9,3.5,4.9,6.3,11.8,6.3s11.8-4,11.8-11.1v-4.9c-3.1,4.2-8,6.8-14.4,6.8-12.8,0-22.4-10.3-22.4-23s9.6-23,22.4-23,11.2,2.6,14.4,6.8v-5.6h11.3ZM886.6,77.8c0-7.1-5.3-12.2-12.6-12.2s-12.6,5.1-12.6,12.2,5.3,12.3,12.6,12.3,12.6-5.1,12.6-12.3Z"/>
    <path class="st2" d="M266.7,170.1h-9.3v-30.9l-13.4,22.1h-1.1l-13.4-22v30.8h-9.4v-47.6h9.7l13.7,22.5,13.6-22.5h9.7v47.6Z"/>
    <path class="st2" d="M271.9,153.1c0-10.1,8-18,18-18s18,7.8,18,18-8,18-18,18-18-7.8-18-18ZM299.1,153.1c0-5.5-4-9.4-9.2-9.4s-9.2,3.9-9.2,9.4,4,9.4,9.2,9.4,9.2-3.9,9.2-9.4Z"/>
    <path class="st2" d="M331.7,135.4v9.8c-4.6-.5-10.3,1.5-10.3,8.6v16.3h-8.8v-34h8.8v5.8c1.8-4.6,6.1-6.5,10.3-6.5Z"/>
    <path class="st2" d="M348,144.5v14.1c0,3.7,2.7,3.7,7.7,3.5v8c-12.3,1.4-16.5-2.2-16.5-11.4v-14.1h-5.9v-8.4h5.9v-6.9l8.8-2.7v9.5h7.7v8.4h-7.7Z"/>
    <path class="st2" d="M393.9,136.1v32.4c0,11.2-8.8,16.2-17.7,16.2s-13.1-2.8-16.1-8.3l7.5-4.3c1.4,2.7,3.7,4.8,8.9,4.8s8.9-3,8.9-8.4v-3.7c-2.4,3.2-6.1,5.2-10.9,5.2-9.7,0-16.9-7.8-16.9-17.4s7.3-17.4,16.9-17.4,8.5,2,10.9,5.2v-4.2h8.6ZM385.4,152.5c0-5.4-4-9.2-9.5-9.2s-9.5,3.9-9.5,9.2,4,9.3,9.5,9.3,9.5-3.9,9.5-9.3Z"/>
    <path class="st2" d="M435,136.1v34h-8.8v-4c-2.4,3.1-6.1,5-11.1,5-9,0-16.5-7.8-16.5-18s7.5-18,16.5-18,8.6,1.9,11.1,5v-4h8.8ZM426.2,153.1c0-5.7-4-9.6-9.5-9.6s-9.4,3.9-9.4,9.6,4,9.6,9.4,9.6,9.5-3.9,9.5-9.6Z"/>
    <path class="st2" d="M476.1,136.1v32.4c0,11.2-8.8,16.2-17.7,16.2s-13.1-2.8-16.1-8.3l7.5-4.3c1.4,2.7,3.7,4.8,8.9,4.8s8.9-3,8.9-8.4v-3.7c-2.4,3.2-6.1,5.2-10.9,5.2-9.7,0-16.9-7.8-16.9-17.4s7.3-17.4,16.9-17.4,8.5,2,10.9,5.2v-4.2h8.6ZM467.5,152.5c0-5.4-4-9.2-9.5-9.2s-9.5,3.9-9.5,9.2,4,9.3,9.5,9.3,9.5-3.9,9.5-9.3Z"/>
    <path class="st2" d="M499.5,163.1c3.4,0,6.1-1.4,7.6-3.4l7.1,4.1c-3.2,4.6-8.3,7.3-14.8,7.3-11.4,0-18.6-7.8-18.6-18s7.3-18,18-18,17.2,8,17.2,18-.1,2.4-.3,3.6h-25.6c1.2,4.5,5,6.4,9.6,6.4ZM507.2,149.9c-1.1-4.9-4.8-6.9-8.4-6.9s-7.9,2.5-8.9,6.9h17.3Z"/>
    <path class="st2" d="M568.9,171.6l-4.4-4.7c-3.4,2.5-7.6,4.1-12.8,4.1-9.7,0-16.7-5.4-16.7-14.1s2.7-10.6,8-13.7c-1.4-2.2-2.3-4.7-2.3-8,0-8.1,6.3-13.7,14.9-13.7s12.4,3.5,15.2,10.2l-8,4.6c-1.2-3.5-3.6-5.7-7-5.7s-5.6,2.1-5.6,5,1.7,4.8,3.9,7.2l10.2,11.2c1-2.2,1.8-4.9,2.3-7.9l7.9,4.5c-.8,3.4-2.2,6.9-4.1,10l6.1,6.7-7.5,4.3ZM558.7,160.7l-10.3-11.2c0,0-.1-.1-.1-.2-2.7,1.7-3.7,4.2-3.7,6.6,0,3.8,2.6,6.5,7.8,6.5s4.6-.6,6.3-1.7Z"/>
    <path class="st2" d="M630.2,138.4c0,8.9-7.1,16-16.3,16h-8.4v15.6h-9.4v-47.6h17.7c9.2,0,16.3,7.1,16.3,16ZM620.9,138.4c0-4.1-2.9-7.2-6.9-7.2h-8.4v14.4h8.4c4,0,6.9-3.1,6.9-7.2Z"/>
    <path class="st2" d="M652.8,135.4v9.8c-4.6-.5-10.3,1.5-10.3,8.6v16.3h-8.8v-34h8.8v5.8c1.8-4.6,6.1-6.5,10.3-6.5Z"/>
    <path class="st2" d="M653.4,153.1c0-10.1,8-18,18-18s18,7.8,18,18-8,18-18,18-18-7.8-18-18ZM680.6,153.1c0-5.5-4-9.4-9.2-9.4s-9.2,3.9-9.2,9.4,4,9.4,9.2,9.4,9.2-3.9,9.2-9.4Z"/>
    <path class="st2" d="M705,144.5v14.1c0,3.7,2.7,3.7,7.7,3.5v8c-12.3,1.4-16.5-2.2-16.5-11.4v-14.1h-5.9v-8.4h5.9v-6.9l8.8-2.7v9.5h7.7v8.4h-7.7Z"/>
    <path class="st2" d="M733.4,163.1c3.4,0,6.1-1.4,7.6-3.4l7.1,4.1c-3.2,4.6-8.3,7.3-14.8,7.3-11.4,0-18.6-7.8-18.6-18s7.3-18,18-18,17.2,8,17.2,18-.1,2.4-.3,3.6h-25.6c1.2,4.5,5,6.4,9.6,6.4ZM741,149.9c-1.1-4.9-4.8-6.9-8.4-6.9s-7.9,2.5-8.9,6.9h17.3Z"/>
    <path class="st2" d="M752.4,153.1c0-10.1,7.6-18,18-18s12.4,3.5,15.2,8.8l-7.5,4.4c-1.4-2.8-4.3-4.6-7.8-4.6-5.2,0-9.1,3.9-9.1,9.3s3.9,9.2,9.1,9.2,6.5-1.7,7.8-4.5l7.6,4.4c-2.9,5.3-8.7,8.8-15.4,8.8-10.3,0-18-7.8-18-18Z"/>
    <path class="st2" d="M800.6,144.5v14.1c0,3.7,2.7,3.7,7.7,3.5v8c-12.3,1.4-16.5-2.2-16.5-11.4v-14.1h-5.9v-8.4h5.9v-6.9l8.8-2.7v9.5h7.7v8.4h-7.7Z"/>
    <path class="st2" d="M811.9,126.6c0-2.9,2.4-5.4,5.4-5.4s5.4,2.5,5.4,5.4-2.4,5.4-5.4,5.4-5.4-2.4-5.4-5.4ZM813,136.1h8.8v34h-8.8v-34Z"/>
    <path class="st2" d="M826.5,153.1c0-10.1,8-18,18-18s18,7.8,18,18-8,18-18,18-18-7.8-18-18ZM853.7,153.1c0-5.5-4-9.4-9.2-9.4s-9.2,3.9-9.2,9.4,4,9.4,9.2,9.4,9.2-3.9,9.2-9.4Z"/>
    <path class="st2" d="M898.9,149.2v20.9h-8.8v-19.8c0-4.6-2.8-7-6.7-7s-7.5,2.5-7.5,8.4v18.4h-8.8v-34h8.8v3.8c2-3.1,5.6-4.8,10.1-4.8,7.2,0,12.9,5,12.9,14.1Z"/>
  </g>
  <g>
    <polygon class="st1" points="122.6 0 61.3 106.2 183.9 106.2 122.6 0"/>
    <polygon class="st0" points="61.3 106.2 0 212.4 122.6 212.4 61.3 106.2"/>
  </g>
</svg>